<?xml version="1.0" standalone="no"?>
<!DOCTYPE svg PUBLIC "-//W3C//DTD SVG 20010904//EN"
 "http://www.w3.org/TR/2001/REC-SVG-20010904/DTD/svg10.dtd">
<svg version="1.0" xmlns="http://www.w3.org/2000/svg"
 width="267.000000pt" height="267.000000pt" viewBox="0 0 267.000000 267.000000"
 preserveAspectRatio="xMidYMid meet">

<g transform="translate(0.000000,267.000000) scale(0.100000,-0.100000)"
fill="#000000" stroke="none">
<path d="M1166 2655 c-392 -56 -723 -263 -943 -590 -167 -248 -248 -588 -209
-881 42 -319 166 -574 387 -793 354 -352 876 -475 1348 -319 398 132 717 450
846 842 50 151 68 267 68 421 0 574 -367 1081 -914 1263 -186 61 -404 83 -583
57z m434 -64 c358 -82 659 -302 843 -615 53 -91 99 -205 133 -331 26 -94 28
-112 28 -310 0 -198 -2 -216 -28 -310 -67 -245 -173 -431 -340 -598 -179 -180
-431 -312 -682 -359 -89 -17 -359 -17 -448 0 -289 54 -576 220 -754 436 -114
137 -180 253 -235 412 -47 134 -67 260 -67 419 0 260 63 481 198 690 211 328
549 539 942 589 79 10 327 -4 410 -23z"/>
<path d="M1145 2122 c-131 -82 -126 -256 8 -321 88 -42 176 -13 239 79 16 24
17 12 17 -242 l1 -268 -305 0 -305 0 0 204 c0 196 1 205 20 211 31 10 79 54
97 88 21 41 20 124 -1 164 -28 55 -80 87 -150 91 -54 3 -66 0 -107 -26 -53
-34 -79 -81 -79 -145 0 -79 38 -141 101 -167 l29 -12 -1 -447 0 -446 -46 -30
c-64 -42 -85 -84 -81 -162 4 -69 23 -103 76 -139 86 -59 210 -26 259 69 20 40
20 124 0 164 -18 34 -66 78 -97 88 -19 6 -20 15 -20 211 l0 204 305 0 305 0 0
-204 0 -204 -29 -11 c-36 -16 -87 -68 -100 -104 -28 -74 2 -166 70 -213 57
-39 141 -39 198 0 68 47 98 139 70 213 -13 36 -64 88 -100 104 l-29 11 0 244
0 244 192 0 191 0 73 -70 c39 -38 77 -70 84 -70 22 0 180 162 180 185 0 27
-148 175 -176 175 -12 0 -47 -27 -85 -65 l-64 -65 -197 0 -198 0 0 230 0 230
173 0 173 0 69 -70 c38 -38 76 -70 83 -70 19 0 170 147 178 173 5 15 -13 38
-77 103 -51 51 -92 84 -104 84 -12 0 -47 -27 -85 -65 l-64 -65 -216 0 -216 0
-17 34 c-27 57 -80 90 -151 94 -47 2 -68 -1 -91 -16z m-328 -104 c45 -41 36
-116 -18 -143 -40 -21 -63 -19 -98 11 -52 43 -40 123 21 149 36 15 65 10 95
-17z m477 1 c35 -41 34 -83 -3 -120 -20 -20 -39 -29 -61 -29 -45 0 -90 47 -90
95 0 82 101 117 154 54z m734 -22 l32 -33 -38 -37 -38 -37 -34 35 -34 35 34
35 c19 19 37 35 40 35 3 0 20 -15 38 -33z m44 -544 c15 -15 28 -31 28 -37 0
-5 -14 -25 -32 -43 l-32 -33 -38 37 -38 37 32 33 c18 18 36 33 42 33 5 0 23
-12 38 -27z m-1263 -678 c16 -14 33 -35 36 -46 10 -32 -14 -88 -45 -104 -41
-21 -64 -19 -99 11 -65 55 -26 159 61 163 9 1 30 -10 47 -24z m676 11 c63 -27
75 -97 25 -148 -27 -26 -36 -30 -68 -25 -93 15 -113 136 -29 172 40 18 32 17
72 1z"/>
</g>
</svg>
